<?xml version="1.0" encoding="UTF-8"?>
<!DOCTYPE svg PUBLIC "-//W3C//DTD SVG 1.1//EN" "http://www.w3.org/Graphics/SVG/1.1/DTD/svg11.dtd">
<!-- Creator: CorelDRAW X7 -->
<svg xmlns="http://www.w3.org/2000/svg" xml:space="preserve" width="4.52808in" height="1.80108in" version="1.1" style="shape-rendering:geometricPrecision; text-rendering:geometricPrecision; image-rendering:optimizeQuality; fill-rule:evenodd; clip-rule:evenodd"
viewBox="0 0 3253 1294"
 xmlns:xlink="http://www.w3.org/1999/xlink">
 <defs>
  <style type="text/css">
   <![CDATA[
    .fil2 {fill:#FEFEFE;fill-rule:nonzero}
    .fil3 {fill:#A9ABAE;fill-rule:nonzero}
    .fil5 {fill:#606062;fill-rule:nonzero}
    .fil4 {fill:#4B4B4D;fill-rule:nonzero}
    .fil0 {fill:#373435;fill-rule:nonzero}
    .fil1 {fill:#212123;fill-rule:nonzero}
   ]]>
  </style>
 </defs>
 <g id="Layer_x0020_1">
  <metadata id="CorelCorpID_0Corel-Layer"/>
  <g id="_342966288">
   <g>
    <path class="fil0" d="M1294 647c0,357 -290,647 -647,647 -357,0 -647,-290 -647,-647 0,-357 290,-647 647,-647 357,0 647,290 647,647z"/>
    <path class="fil1" d="M349 1221c-31,-16 -60,-34 -88,-55 16,-57 37,-138 52,-212 -40,-10 -80,-73 -37,-103 43,-30 60,-53 80,-70 20,-16 73,-302 163,-588 33,-47 95,-18 89,66 -43,137 -59,190 -146,516 0,0 286,-100 296,-110 10,-10 23,-63 83,-382 60,0 67,80 63,119 -3,40 -23,207 -23,207l57 0c31,0 60,24 -3,77 -18,15 -43,33 -77,52 -87,532 -137,426 -137,426 0,0 27,-323 27,-356 0,-33 -30,-27 -30,-27 0,0 -259,117 -286,137 -20,15 -64,212 -83,303z"/>
    <path class="fil2" d="M348 1226l2 -11c20,-94 62,-282 82,-297 27,-20 286,-137 286,-137 0,0 30,-6 30,27 0,33 -27,356 -27,356 0,0 50,106 137,-426 34,-19 59,-37 77,-52 63,-53 34,-77 3,-77l-57 0c0,0 20,-167 23,-207 4,-39 -3,-119 -63,-119 -60,319 -73,372 -83,382 -10,10 -296,110 -296,110 87,-326 103,-379 146,-516 6,-84 -56,-113 -89,-66 -90,286 -143,572 -163,588 -20,17 -37,40 -80,70 -43,30 -3,93 37,103 -14,71 -34,147 -50,204l-1 7 -1 4c28,22 57,41 87,57z"/>
   </g>
   <g>
    <path class="fil3" d="M1275 1224l0 -50c0,0 246,-122 766,-139 -377,35 -659,111 -766,205l0 -16z"/>
    <g>
     <path class="fil4" d="M1772 210c0,-3 -3,-6 -7,-9 -4,-2 -10,-4 -17,-4 -7,-1 -16,-1 -26,1 -8,1 -16,3 -23,7 -8,4 -16,8 -23,14 -7,6 -14,12 -22,19 -11,0 -22,0 -34,0 -12,0 -23,-1 -35,-1 -11,0 -23,0 -34,0 -12,1 -23,2 -34,4 -14,2 -27,5 -38,9 -11,4 -21,9 -30,15 -8,5 -15,11 -20,17 -6,6 -9,12 -12,18 -2,6 -3,12 -2,18 1,5 3,10 7,15 4,4 10,8 17,11 7,2 15,4 26,5 10,0 22,0 36,-3 9,-1 18,-3 27,-6 8,-4 16,-7 24,-11 7,-4 13,-8 19,-12 5,-5 9,-9 12,-13 2,-4 4,-7 3,-10 0,-2 -1,-4 -4,-6 -2,-1 -5,-2 -9,-3 0,6 -1,11 -3,15 -3,5 -6,10 -11,14 -4,4 -10,7 -16,10 -6,4 -12,6 -18,9 -7,2 -13,3 -19,4 -10,2 -19,2 -27,1 -8,-1 -15,-3 -20,-6 -6,-3 -11,-6 -14,-11 -3,-4 -5,-9 -6,-14 -1,-6 0,-11 2,-17 2,-6 7,-12 12,-18 6,-5 14,-10 24,-14 9,-4 21,-8 34,-10 11,-2 22,-3 34,-3 11,-1 23,-1 35,-1 11,0 23,1 34,1 11,1 22,1 33,1 -10,11 -19,23 -28,36 -9,13 -18,26 -27,41 -9,14 -18,29 -26,43 -9,15 -17,30 -25,45 -8,14 -16,28 -24,41 -8,14 -16,26 -24,38 -7,11 -15,21 -22,29 -1,2 -1,3 -1,4 -1,1 -1,1 0,2 0,1 1,2 3,3 2,1 4,2 6,2 3,0 5,0 8,1 2,0 4,-1 6,-1 2,0 4,-1 6,-2 1,-2 3,-3 4,-6 1,-2 2,-5 4,-8 5,-11 11,-22 17,-35 6,-13 13,-26 19,-40 7,-14 13,-28 20,-42 7,-14 14,-28 22,-42 7,-14 15,-27 22,-40 8,-13 16,-26 24,-37 8,-12 16,-22 25,-32 9,1 18,1 27,0 8,0 16,-1 23,-2 12,-2 22,-4 31,-7 9,-3 16,-6 21,-9 5,-3 9,-6 12,-9 2,-3 3,-6 2,-9zm-18 0c1,2 -1,5 -5,8 -4,3 -11,6 -19,9 -8,3 -17,6 -29,8 -6,1 -12,1 -18,2 -7,0 -13,1 -19,1 8,-9 17,-16 27,-22 9,-5 18,-9 28,-10 7,-2 14,-2 19,-2 5,0 9,1 12,2 3,1 4,2 4,4zm13 -4c-1,-3 -2,-5 -4,-6 -2,-2 -4,-2 -8,-1 -8,1 -15,4 -23,9 -8,6 -15,12 -23,21 -7,8 -14,18 -22,29 -7,10 -15,22 -22,35 -7,12 -15,25 -23,39 -3,1 -7,2 -11,4 -4,1 -8,2 -12,2 -2,1 -4,1 -6,1 -2,0 -4,0 -5,0 -2,1 -2,1 -3,2 0,1 0,1 0,2 0,2 1,4 3,5 1,1 3,2 5,2 1,0 3,0 4,0 3,-1 6,-1 9,-2 3,-1 6,-2 9,-4 -7,13 -14,27 -22,40 -7,13 -15,26 -23,38 -8,13 -16,25 -24,36 0,3 2,6 3,7 2,1 4,2 7,1 2,0 3,0 5,-1 1,-1 2,-1 3,-3 4,-3 7,-7 11,-13 3,-5 7,-10 11,-16 4,-6 8,-12 12,-18 4,-6 8,-12 11,-17 4,-5 8,-10 11,-13 6,-6 12,-12 17,-16 5,-4 10,-8 14,-10 5,-3 8,-4 10,-5 1,0 1,0 2,0 0,1 0,1 0,2 1,1 0,3 -2,6 -1,4 -3,8 -6,12 -3,5 -6,10 -9,15 -3,6 -6,11 -10,17 -3,6 -6,11 -8,17 -3,5 -5,10 -6,15 -1,5 -2,9 -1,12 1,5 2,9 5,11 3,2 6,3 10,2 5,-1 10,-3 16,-8 6,-4 12,-11 19,-19 7,-9 14,-19 21,-32 0,0 0,-1 0,-1 0,0 0,0 0,-1 0,0 0,-1 -1,-1 0,0 0,-1 -1,-1 0,0 0,0 0,0 -10,16 -18,27 -24,35 -7,9 -12,13 -15,14 -2,0 -4,-1 -5,-2 -1,-2 -2,-4 -3,-8 0,-3 0,-7 2,-12 1,-5 3,-10 6,-16 2,-6 5,-12 8,-18 3,-6 7,-12 10,-18 3,-5 6,-10 8,-15 2,-3 4,-6 5,-9 0,-2 1,-4 0,-5 0,-2 -1,-3 -3,-4 -2,0 -4,0 -6,1 -5,0 -10,2 -16,5 -6,4 -13,8 -20,14 -8,6 -16,13 -24,21 0,0 -1,0 -1,0 0,0 0,-1 0,-1 0,0 0,-1 0,-1 0,-1 0,-1 0,-1 4,-6 7,-13 11,-20 4,-8 8,-16 13,-24 11,-6 22,-13 32,-20 10,-8 19,-16 28,-24 8,-8 16,-17 22,-25 7,-9 12,-17 17,-25 4,-7 7,-15 9,-21 3,-6 3,-11 3,-15zm-11 7c1,3 0,7 -2,12 -1,5 -4,11 -8,18 -3,6 -8,13 -13,20 -6,7 -12,15 -19,22 -7,7 -15,14 -24,20 -8,7 -18,13 -27,18 4,-9 9,-17 14,-26 4,-9 9,-17 14,-26 5,-8 10,-16 15,-23 5,-7 10,-14 15,-20 5,-5 10,-10 15,-13 5,-4 9,-6 13,-7 3,0 4,0 5,1 1,1 2,2 2,4zm36 110c-1,-3 -3,-5 -6,-6 -4,-1 -8,-1 -14,0 -10,1 -18,4 -25,7 -7,4 -12,7 -16,12 -4,4 -7,8 -8,13 -1,5 -2,10 -1,14 0,3 1,5 2,8 1,2 3,5 4,7 -5,3 -11,7 -15,11 -5,4 -9,9 -13,13 -4,5 -6,10 -8,14 -1,5 -2,10 -1,15 0,4 2,8 5,11 3,4 6,6 11,7 5,1 12,1 19,0 6,-1 13,-3 19,-6 6,-4 13,-8 18,-13 6,-5 12,-11 16,-17 2,-4 4,-7 7,-10 2,-4 4,-8 6,-11 0,-1 0,-1 0,-2 0,0 0,0 0,0 0,-1 0,-1 0,-2 -1,0 -1,0 -2,0 0,-1 0,-1 0,-1 -3,4 -5,8 -7,12 -2,3 -4,6 -6,9 -4,4 -7,8 -11,12 -4,3 -9,6 -14,9 -4,3 -9,4 -15,5 -4,1 -9,1 -12,0 -3,-1 -6,-3 -8,-5 -2,-3 -3,-5 -3,-9 -1,-4 -1,-8 1,-12 1,-5 3,-9 6,-14 4,-4 8,-8 13,-12 3,2 6,4 10,5 3,1 7,1 12,0 4,-1 8,-2 11,-4 3,-2 6,-5 7,-7 2,-3 2,-5 2,-7 0,-2 -1,-4 -3,-5 -2,-1 -5,-1 -9,0 -4,0 -9,1 -13,3 -5,2 -10,4 -14,6 -1,-2 -2,-3 -2,-5 -1,-1 -1,-3 -2,-5 0,-4 0,-7 1,-11 1,-4 2,-8 4,-11 2,-3 5,-6 9,-9 4,-2 8,-4 13,-5 2,0 4,0 6,0 2,0 5,1 7,2 2,1 4,2 6,3 2,2 3,4 3,6 4,-3 7,-6 8,-8 2,-3 2,-5 2,-7zm-22 50c0,1 -1,3 -3,4 -2,2 -5,3 -9,3 -4,1 -7,1 -9,0 -3,0 -5,-1 -8,-3 3,-1 6,-2 10,-3 3,-2 6,-2 10,-3 3,0 5,0 7,0 1,0 2,1 2,2z"/>
     <path class="fil4" d="M2121 331c-2,-14 -6,-25 -14,-34 -7,-9 -16,-16 -29,-20 -12,-4 -26,-4 -43,-2 -20,4 -40,12 -59,26 -19,14 -39,32 -57,55 -19,23 -38,49 -57,79 -19,29 -37,62 -56,97 -18,35 -37,71 -55,110 -10,2 -20,4 -30,6 -11,2 -21,4 -32,5 -8,2 -16,3 -26,5 -10,1 -21,2 -33,3 9,-17 17,-34 24,-50 8,-16 15,-32 22,-46 7,-15 14,-28 20,-40 0,0 1,-2 2,-5 1,-2 3,-6 5,-10 2,-4 5,-8 7,-12 2,-4 4,-8 5,-11 2,-4 2,-6 3,-6 -1,-2 -1,-3 -2,-4 -1,-1 -3,-2 -4,-2 -1,1 -2,1 -3,3 -10,13 -22,27 -36,40 -13,13 -28,26 -44,39 -15,12 -32,23 -50,34 -17,10 -34,18 -52,25 -18,7 -35,12 -53,15 -13,2 -26,3 -39,2 -13,-1 -25,-4 -36,-9 -2,1 -4,2 -5,4 -1,2 -2,5 -3,7 0,3 0,5 0,8 0,2 0,3 0,3 1,6 6,10 15,12 9,2 21,2 36,-1 13,-2 27,-5 43,-11 17,-5 34,-12 52,-20 18,-8 36,-18 55,-29 19,-11 38,-24 56,-38 1,0 1,0 2,0 0,-1 0,-1 1,-1 0,0 1,0 1,0 1,0 1,1 1,1 -9,16 -17,33 -26,50 -9,17 -19,35 -28,53 -12,1 -23,0 -35,-1 -11,-1 -23,-2 -35,-4 -1,0 -2,0 -3,0 -1,-1 -2,-1 -3,0 -3,0 -5,1 -6,3 -2,2 -3,4 -3,6 -1,2 -1,3 -1,4 1,4 3,7 7,9 4,3 9,5 16,6 6,1 14,3 22,3 8,1 17,1 26,1 -13,23 -27,47 -43,74 -16,26 -34,56 -54,88 -21,32 -43,69 -69,109 -4,5 -6,10 -8,15 -1,4 -2,8 -1,11 0,5 3,8 8,10 5,1 12,1 22,0 9,-2 18,-5 24,-9 7,-4 12,-10 16,-19 4,-8 10,-19 17,-33 7,-14 15,-31 24,-49 9,-19 19,-39 29,-60 11,-22 22,-44 34,-67 11,-23 22,-47 34,-70 9,0 17,-1 24,-1 7,-1 13,-2 18,-2 6,-1 9,-1 11,-2 11,-2 22,-4 34,-6 11,-2 22,-4 32,-7 -14,29 -28,58 -42,88 -14,30 -28,60 -42,90 -14,29 -29,59 -43,88 -2,6 -4,10 -6,14 -1,4 -1,7 -1,10 1,5 5,8 11,9 7,1 16,1 29,-1 1,0 3,-1 6,-2 4,-1 8,-4 12,-8 4,-4 8,-10 11,-17 9,-27 20,-55 31,-86 11,-31 23,-63 36,-96 13,-33 26,-66 40,-100 43,-12 81,-27 116,-44 34,-17 64,-35 90,-55 26,-19 49,-39 67,-60 19,-21 33,-41 45,-62 11,-20 19,-40 23,-58 4,-18 5,-35 2,-50zm-29 18c2,12 2,26 -2,42 -3,16 -10,32 -19,50 -10,17 -22,35 -38,53 -16,17 -36,35 -59,51 -23,17 -50,33 -80,48 -31,14 -65,27 -104,38 14,-33 29,-65 44,-97 15,-31 31,-60 47,-87 15,-27 31,-52 47,-73 16,-21 32,-37 48,-50 17,-13 33,-21 48,-24 13,-2 24,-1 34,3 9,3 17,9 23,17 6,8 9,17 11,29zm-89 267c-1,-6 -6,-11 -14,-13 -8,-3 -19,-3 -32,-1 -23,4 -42,10 -58,17 -15,8 -27,17 -36,27 -9,9 -15,20 -18,31 -4,11 -4,21 -3,31 1,7 3,13 6,18 2,6 5,11 9,16 -13,8 -25,16 -36,26 -11,9 -21,20 -29,30 -8,11 -14,22 -18,33 -4,11 -5,22 -3,33 1,10 5,19 11,27 7,7 16,12 27,15 12,3 26,3 43,0 14,-2 29,-7 43,-15 15,-7 29,-17 42,-29 14,-12 26,-25 37,-40 4,-7 9,-15 14,-23 5,-8 10,-16 15,-25 1,-1 1,-2 1,-3 0,0 0,-1 0,-2 -1,-1 -1,-2 -2,-3 -1,-1 -2,-1 -3,-2 0,0 -1,0 -1,0 -5,9 -11,18 -16,26 -4,8 -9,15 -14,22 -8,9 -16,18 -26,26 -9,9 -19,16 -30,22 -11,6 -22,10 -34,12 -11,1 -21,1 -28,-1 -8,-3 -14,-6 -18,-12 -5,-5 -7,-12 -9,-19 -1,-9 0,-18 3,-29 3,-10 8,-20 15,-31 7,-10 17,-19 28,-27 7,5 14,8 23,10 8,2 17,2 27,1 11,-2 20,-5 27,-10 7,-5 13,-11 16,-16 4,-6 5,-12 5,-17 -1,-4 -4,-8 -8,-10 -5,-2 -11,-3 -20,-1 -10,1 -21,4 -31,8 -11,3 -21,8 -31,13 -3,-3 -4,-7 -6,-11 -1,-3 -2,-7 -3,-11 -1,-9 -1,-17 1,-26 2,-9 5,-17 11,-25 5,-8 11,-15 20,-20 8,-6 18,-10 29,-12 4,0 9,0 14,0 6,0 11,2 16,3 6,2 10,5 14,9 4,3 7,8 8,14 8,-8 14,-14 18,-20 3,-6 4,-12 4,-16zm-50 115c0,3 -2,6 -7,10 -5,3 -12,5 -22,7 -8,1 -15,1 -21,0 -6,-1 -11,-4 -16,-7 6,-3 13,-6 21,-8 8,-3 16,-5 24,-6 7,-1 12,-1 15,0 4,1 6,2 6,4zm292 -186c-1,-2 -2,-2 -3,-3 -1,0 -2,-1 -3,-1 -2,0 -2,0 -2,0 -21,31 -41,59 -59,86 -19,27 -36,52 -53,75 2,-15 4,-30 7,-44 3,-13 6,-25 9,-35 3,-11 5,-18 8,-23 1,-2 2,-5 4,-7 1,-2 1,-4 1,-6 0,-1 -1,-2 -2,-3 -1,0 -3,0 -4,0 -9,2 -17,4 -24,8 -7,4 -14,9 -21,16 -6,7 -13,15 -20,26 -7,10 -14,21 -20,33 -7,11 -13,23 -20,34 -6,12 -12,23 -17,34 -6,10 -11,19 -16,27l-9 14c-1,3 -2,4 -2,6 -1,1 -1,2 -1,3 1,1 1,2 2,3 1,1 3,1 3,1 2,0 2,0 2,0 10,-17 20,-35 30,-53 9,-18 19,-36 28,-53 2,-4 5,-10 9,-16 3,-7 7,-14 11,-20 4,-7 8,-13 11,-18 3,-5 6,-9 7,-10 -1,3 -3,8 -5,15 -3,7 -5,16 -8,27 -2,10 -5,22 -8,34 -2,13 -4,26 -6,39 -2,14 -3,27 -4,39 -15,19 -30,37 -46,55 -15,17 -32,33 -48,50 -6,5 -10,9 -12,13 -2,3 -3,5 -3,7 0,1 1,2 4,2 2,1 4,1 7,0 3,0 5,-1 8,-1 2,-1 4,-2 6,-2 2,-1 3,-1 3,-1 11,-12 24,-27 37,-44 14,-17 29,-35 44,-55 0,3 1,7 1,10 0,3 1,6 1,9 2,11 5,20 8,27 4,8 10,14 17,17 6,4 15,5 25,4 10,-2 22,-8 35,-17 13,-10 26,-24 41,-43 15,-18 30,-41 45,-68 0,-1 1,-2 1,-3 0,-1 0,-1 0,-2 -1,-1 -1,-2 -2,-3 -1,-1 -2,-1 -3,-2 -1,0 -1,0 -1,0 -15,24 -27,43 -39,59 -11,16 -21,28 -30,37 -8,8 -15,13 -21,15 -7,1 -13,-1 -17,-7 -5,-7 -8,-15 -9,-27 -2,-10 -3,-22 -3,-35 1,-13 1,-27 3,-41 16,-23 32,-45 48,-67 15,-22 29,-43 41,-61 13,-19 23,-35 32,-48 1,-1 1,-2 1,-4 1,-1 1,-2 1,-2zm242 -19c-1,-3 -3,-6 -7,-7 -3,-2 -10,-2 -19,-1 -22,4 -44,11 -64,21 -21,10 -41,22 -59,36 -19,14 -36,30 -52,47 -15,17 -29,35 -42,53 -12,18 -22,36 -31,53 -8,17 -14,33 -18,48 -4,14 -5,27 -3,37 2,9 5,16 12,21 6,4 14,6 26,4 8,-2 16,-5 24,-10 9,-4 17,-10 26,-17 8,-8 16,-15 24,-23 7,-8 14,-16 21,-24 6,-7 12,-14 16,-20 5,-6 8,-10 11,-13 1,-2 1,-3 2,-3 1,-1 1,-1 2,-1 1,0 1,0 2,0 1,1 1,1 1,2 -4,12 -6,23 -7,33 -1,10 -1,19 0,27 2,12 6,21 13,26 6,6 14,8 24,6 10,-1 22,-7 34,-17 13,-10 27,-24 42,-42 14,-18 29,-41 45,-69 0,-1 0,-2 0,-2 0,-1 0,-2 0,-2 0,-2 -1,-3 -2,-3 -1,-1 -1,-2 -2,-2 -1,0 -1,-1 -2,-1 -21,36 -39,63 -54,82 -15,19 -27,28 -35,30 -5,1 -8,-1 -11,-4 -3,-4 -5,-10 -6,-17 -2,-11 -2,-23 1,-35 2,-12 6,-25 11,-37 5,-12 11,-24 17,-36 7,-12 13,-23 20,-33 6,-10 12,-19 17,-27 6,-7 10,-14 15,-20 4,-6 7,-11 9,-14 0,-1 0,-1 0,-2 1,0 1,-1 1,-1 -1,-2 -2,-3 -4,-4 -2,0 -5,-1 -8,-1 -3,0 -7,1 -10,1 -3,1 -6,1 -8,2 -2,1 -4,1 -6,2 -3,1 -7,3 -11,8 -4,5 -9,11 -15,18 -5,8 -10,15 -15,24 -6,8 -11,15 -16,23 -4,7 -8,14 -12,19 -5,7 -10,15 -17,24 -7,10 -15,20 -24,30 -8,10 -17,20 -27,30 -9,9 -19,17 -29,23 -10,7 -20,11 -30,13 -3,0 -5,-1 -7,-2 -2,-2 -3,-4 -4,-8 -1,-6 0,-14 3,-25 3,-11 8,-23 14,-36 6,-14 14,-28 23,-42 9,-15 20,-30 31,-44 11,-14 23,-27 37,-39 13,-12 26,-22 41,-30 14,-8 28,-13 43,-16 7,-1 13,-1 17,1 4,1 7,3 10,6 2,2 3,4 4,6 1,2 1,3 2,4 0,-1 2,-2 4,-4 1,-2 3,-4 5,-7 2,-3 4,-6 5,-10 2,-3 2,-6 2,-9zm272 -36c0,-5 -3,-8 -8,-11 -5,-2 -12,-3 -23,-1 -22,3 -44,10 -65,21 -21,10 -41,23 -60,38 -19,14 -37,31 -53,49 -17,18 -31,36 -44,55 -13,18 -24,37 -33,55 -8,17 -15,34 -19,49 -4,15 -5,28 -3,39 1,9 5,15 11,19 6,5 14,6 25,4 10,-1 20,-5 30,-12 10,-6 20,-14 30,-22 10,-9 20,-18 28,-27 9,-9 16,-18 22,-25 6,-8 11,-13 13,-17 1,-1 2,-2 3,-3 0,0 1,-1 2,-1 1,0 1,0 2,1 1,0 1,1 1,2 0,1 -1,4 -4,11 -3,6 -8,14 -13,24 -6,10 -13,22 -21,34 -7,13 -16,26 -25,39 -10,14 -20,27 -30,40 -10,13 -21,25 -32,35 -11,11 -22,21 -33,28 -11,7 -22,12 -32,15 -4,0 -7,1 -9,2 -2,1 -3,2 -3,3 1,1 2,2 5,3 2,0 6,1 10,1 4,0 8,0 12,-1 19,-3 37,-10 54,-20 17,-10 34,-23 50,-39 15,-15 30,-33 44,-52 14,-19 27,-38 40,-59 12,-20 23,-40 33,-60 11,-20 20,-39 28,-57 9,-18 16,-33 22,-47 6,-13 11,-24 15,-31 0,-1 1,-2 1,-2 0,-1 0,-1 0,-2 0,-1 -2,-2 -4,-3 -2,-1 -4,-1 -8,-1 -3,0 -6,0 -10,1 -3,0 -5,1 -9,2 -3,1 -6,2 -9,4 -3,2 -6,3 -7,5 -2,4 -5,8 -8,13 -4,6 -7,11 -10,16 -4,6 -7,11 -10,15 -4,7 -11,16 -18,26 -8,10 -17,21 -27,32 -10,11 -21,22 -32,33 -11,10 -21,19 -32,26 -11,7 -21,11 -31,13 -3,0 -5,0 -7,-2 -2,-1 -3,-3 -4,-6 0,-6 1,-15 4,-26 3,-11 8,-24 15,-38 7,-14 15,-29 25,-44 9,-16 20,-31 32,-46 12,-15 25,-29 39,-41 13,-13 28,-24 42,-32 15,-9 30,-14 45,-17 7,0 13,0 17,3 4,2 7,5 9,9 3,4 4,7 5,10 1,3 1,5 1,5 4,0 7,-3 10,-6 4,-4 7,-9 9,-14 2,-5 3,-10 2,-15zm221 -35c0,-3 -2,-6 -6,-7 -5,-2 -11,-2 -21,-1 -22,4 -42,10 -62,20 -19,9 -38,21 -55,34 -17,14 -32,29 -47,45 -14,16 -26,33 -37,50 -11,17 -20,34 -27,51 -7,17 -12,32 -15,47 -3,15 -3,27 -2,38 2,11 6,19 13,25 7,5 17,7 29,5 16,-2 31,-7 45,-15 15,-7 29,-16 43,-27 13,-12 26,-24 38,-37 4,2 9,3 14,4 5,0 10,0 15,-1 10,-1 19,-5 28,-11 10,-5 19,-13 28,-23 8,-9 16,-21 23,-34 0,-1 0,-2 1,-3 0,-1 0,-1 0,-2 -1,-1 -1,-2 -2,-3 -1,-1 -2,-1 -3,-2 -1,0 -2,0 -2,0 -7,12 -14,22 -21,31 -8,8 -15,15 -22,20 -7,5 -14,9 -21,10 -8,1 -15,-1 -21,-6 12,-15 22,-30 32,-46 9,-15 17,-30 23,-44 6,-15 11,-28 14,-40 3,-12 3,-22 2,-30 -1,-7 -3,-12 -8,-15 -4,-3 -9,-4 -17,-3 -13,2 -24,7 -35,15 -10,7 -19,16 -27,27 -8,11 -15,23 -20,35 -5,13 -8,26 -10,39 -2,13 -2,25 0,36 1,8 3,14 5,20 3,6 6,11 9,15 -6,9 -13,16 -20,23 -8,7 -15,13 -22,17 -8,4 -15,7 -22,9 -11,1 -20,0 -26,-4 -6,-4 -9,-10 -11,-19 -1,-10 0,-22 4,-37 4,-14 10,-30 18,-46 8,-17 18,-33 29,-49 11,-17 24,-32 37,-46 13,-14 27,-25 41,-34 14,-10 28,-15 41,-18 7,-1 13,-1 18,0 4,1 8,3 11,4 3,2 5,4 6,5 1,2 2,3 2,3 1,-1 3,-2 5,-5 3,-2 5,-6 6,-9 2,-4 3,-7 2,-11zm-52 63c1,5 1,12 -1,22 -2,9 -5,19 -9,30 -4,12 -10,23 -16,36 -5,12 -12,24 -20,36 0,-1 -1,-3 -1,-5 0,-2 -1,-4 -1,-6 -1,-9 -2,-19 -1,-30 0,-11 2,-21 4,-32 2,-10 5,-20 9,-29 3,-9 7,-16 12,-22 4,-5 9,-9 14,-10 3,0 6,0 7,2 2,2 3,4 3,8z"/>
     <path class="fil4" d="M3240 415c0,-1 -1,-2 -1,-3 -1,0 -3,0 -4,0 -9,1 -19,6 -30,14 -11,9 -24,19 -37,32 -13,13 -26,27 -39,42 -14,15 -27,30 -39,45 -12,15 -23,29 -33,42 -10,12 -18,23 -24,31 7,-16 14,-32 21,-47 7,-16 14,-30 20,-44 7,-13 13,-25 18,-36 6,-10 10,-18 13,-24 3,-6 5,-9 5,-9 0,-1 0,-1 1,-2 0,0 0,-1 0,-1 -1,-2 -2,-3 -4,-4 -2,0 -5,-1 -8,-1 -3,1 -6,1 -9,1 -5,1 -8,2 -11,2 -3,1 -6,2 -8,4 -2,2 -4,5 -6,9l-125 238c1,7 4,12 8,16 4,3 9,4 15,3 5,-1 10,-3 14,-6 4,-4 8,-8 12,-13 4,-4 7,-9 10,-14 3,-4 6,-8 8,-12 4,-4 9,-12 16,-21 7,-10 15,-20 25,-33 9,-12 18,-25 29,-38 10,-14 20,-27 30,-40 10,-12 19,-24 28,-34 9,-11 16,-19 22,-26 6,-6 11,-9 13,-10 1,0 1,0 2,0 0,0 1,1 1,2 -8,11 -16,24 -24,38 -9,14 -17,28 -24,43 -8,16 -14,31 -20,45 -6,15 -10,29 -13,42 -3,13 -4,24 -2,33 1,8 4,14 8,17 4,4 9,7 15,7 6,1 12,1 18,0 10,-2 22,-7 35,-17 13,-10 27,-24 41,-42 15,-18 30,-42 45,-69 0,-1 1,-2 1,-3 0,0 0,-1 0,-1 -1,-2 -1,-3 -2,-4 -1,0 -2,-1 -3,-1 -1,-1 -1,-1 -1,-1 -22,36 -40,63 -55,82 -14,18 -26,28 -35,30 -4,0 -8,-1 -11,-5 -3,-3 -5,-9 -6,-17 -1,-8 -1,-18 2,-31 2,-13 6,-27 11,-42 5,-15 11,-30 18,-46 7,-16 14,-31 22,-46 8,-14 16,-27 23,-39 8,-11 15,-21 22,-27 1,-1 1,-2 2,-4 0,-1 0,-3 0,-5z"/>
    </g>
    <path class="fil5" d="M1971 1009l1 0c7,8 22,25 47,51 23,24 42,44 57,59 2,1 3,2 4,3 1,1 2,2 3,2 2,0 3,-2 3,-7l2 -127c0,-6 0,-10 2,-13 0,-2 2,-4 5,-5 2,0 4,0 6,0 2,0 3,-1 3,-2 0,-1 -1,-2 -4,-2 -5,0 -9,0 -12,0 -4,1 -6,1 -7,1 -5,0 -13,-1 -24,-1 -1,0 -2,0 -3,0 -2,1 -2,1 -2,2 0,1 1,2 3,2 3,0 7,0 10,1 3,1 5,3 6,5 1,3 1,7 1,13l2 91 -1 0c-2,-2 -8,-9 -17,-19 -10,-10 -19,-19 -26,-27 -33,-35 -53,-57 -61,-65 -1,-2 -2,-3 -4,-5 -1,-1 -2,-1 -3,-1 -2,0 -3,2 -2,7l-2 120c0,8 0,14 -1,18 -1,4 -3,6 -5,7 -3,0 -6,1 -9,1 -2,0 -3,0 -3,1 0,2 1,2 4,2 11,0 18,0 21,0 4,0 12,0 24,0 3,0 5,0 5,-2 0,-1 -1,-1 -3,-1 -4,0 -7,-1 -11,-2 -2,0 -3,-2 -4,-6 -2,-3 -2,-9 -3,-16l-2 -85zm183 54c0,19 0,33 -1,43 0,3 0,5 -1,7 -1,2 -2,3 -4,4 -2,0 -4,1 -7,1 -3,0 -4,0 -4,1 0,2 2,2 4,2 10,0 19,0 25,0 9,0 28,0 55,1 3,0 6,0 7,-1 2,0 3,-2 3,-4 1,-3 2,-7 2,-12 1,-4 1,-8 1,-11 0,-2 -1,-3 -2,-4 0,0 -1,1 -1,1 -1,0 -1,1 -1,3 -1,7 -4,12 -9,14 -3,2 -6,2 -9,3 -4,0 -7,0 -9,0 -10,0 -17,-1 -20,-4 -3,-2 -4,-6 -4,-13 0,-10 0,-21 0,-31l0 -17c0,-1 0,-2 1,-2 3,0 8,0 15,0 6,1 10,1 13,1 4,1 6,1 8,3 1,1 2,3 3,5 0,3 1,5 1,7 -1,1 0,2 1,2 1,0 2,0 2,-1 0,-1 0,-2 0,-3 0,-3 1,-8 1,-13 1,-10 2,-15 2,-15 0,-1 -1,-2 -2,-2 0,0 -1,1 -3,3 -2,2 -5,3 -9,3 -3,0 -8,0 -16,0 -7,0 -13,0 -16,0 -1,0 -1,0 -1,-2l0 -51c0,-1 0,-2 1,-2 3,0 8,0 15,0 6,0 11,0 13,1 5,0 8,1 10,2 2,2 3,3 3,5 1,3 2,5 2,7 -1,2 0,3 1,3 2,0 2,-1 2,-2 1,-5 1,-9 1,-13 1,-9 2,-13 2,-14 0,-1 0,-1 -1,-1 -1,0 -2,0 -3,0 -2,1 -5,1 -9,2 -15,0 -31,0 -49,0 -7,0 -16,-1 -28,-1 -3,0 -4,1 -4,2 0,1 1,2 3,2 3,0 6,0 8,0 3,1 5,2 6,4 1,2 2,4 2,8 0,2 0,16 0,43l0 36zm154 0c0,19 0,33 -1,43 0,3 0,5 -1,7 -1,2 -2,3 -4,4 -2,0 -4,1 -7,1 -3,0 -4,0 -4,1 0,2 2,2 4,2 10,0 18,0 25,0 7,0 17,0 31,0 2,0 3,0 4,-2 0,-1 -2,-1 -4,-1 -3,0 -6,-1 -10,-1 -3,-1 -4,-2 -5,-4 -1,-2 -2,-4 -2,-7 -1,-10 -1,-24 -1,-43l0 -83 24 0c9,0 15,2 18,4 4,2 6,5 6,7l0 3c0,3 0,4 2,4 1,0 1,-1 2,-4 0,-8 0,-16 0,-23 0,-3 0,-4 -1,-4 -1,0 -3,0 -6,1 -3,0 -7,1 -13,1l-78 0c-7,0 -13,-1 -19,-1 -3,0 -5,-1 -6,-2 -1,0 -2,-1 -3,-1 -1,0 -2,2 -2,4 0,2 -1,5 -2,11 -1,3 -1,5 -2,8 0,2 0,4 0,5 -1,2 0,3 1,3 2,0 2,-1 3,-3 0,-1 1,-4 3,-7 1,-2 4,-4 6,-4 3,-1 7,-2 13,-2l29 0 0 83zm142 54c1,5 3,7 4,7 2,0 3,-1 4,-2 0,-2 2,-5 4,-9 15,-37 27,-71 38,-100l0 0 41 101c1,4 3,6 3,8 1,1 2,2 3,2 1,0 2,-1 3,-2 1,-2 2,-4 3,-7 13,-43 26,-83 39,-121 2,-6 4,-11 5,-14 2,-4 4,-6 6,-7 2,-1 5,-1 7,-1 2,0 2,-1 2,-2 0,-1 -1,-2 -3,-2 -3,0 -7,0 -10,0 -3,1 -5,1 -6,1 -3,0 -10,-1 -21,-1 -3,0 -4,1 -4,2 0,1 1,2 3,2 4,0 6,0 8,1 1,2 2,3 2,5 0,1 0,3 -1,5 0,2 -1,4 -1,7 -11,35 -19,65 -26,90l-1 0 -41 -101c-1,-4 -2,-6 -3,-8 -1,-1 -2,-2 -3,-2 0,0 -1,0 -2,1 0,2 -1,4 -3,6l-38 106 0 0c-9,-28 -17,-57 -25,-86 -1,-5 -2,-9 -3,-12 -1,-2 -1,-3 -1,-4 0,-2 -1,-2 -1,-3 0,-2 1,-4 3,-4 1,-1 3,-1 5,-1 2,0 3,-1 3,-2 0,-1 -1,-2 -4,-2 -6,0 -11,0 -14,0 -4,1 -7,1 -8,1 -3,0 -11,-1 -23,-1 -2,0 -4,1 -4,2 0,1 1,2 3,2 3,0 5,0 8,2 3,2 5,6 7,14l42 129zm253 7c25,0 45,-8 60,-24 14,-16 21,-35 21,-59 -1,-49 -27,-75 -79,-76 -29,1 -50,10 -62,27 -13,17 -19,34 -19,53 0,19 6,36 18,53 13,17 33,26 61,26zm8 -10c-19,0 -33,-8 -44,-22 -10,-14 -16,-32 -16,-54 0,-12 2,-23 5,-31 3,-8 6,-15 11,-19 5,-5 10,-8 16,-10 5,-2 11,-3 16,-3 17,0 31,7 41,20 11,13 17,31 17,54 0,14 -2,26 -5,34 -3,9 -8,16 -13,20 -5,4 -10,7 -15,9 -5,1 -9,2 -13,2zm120 -51c0,19 0,33 -1,43 0,3 -1,5 -1,7 -1,2 -3,3 -5,4 -1,0 -4,1 -7,1 -2,0 -3,0 -3,1 0,2 2,2 4,2 10,0 18,0 24,0 5,0 15,0 29,0 3,0 4,0 4,-2 0,-1 -1,-1 -2,-1 -3,0 -7,-1 -10,-1 -3,-1 -5,-2 -6,-4 -1,-2 -2,-4 -2,-7 -1,-10 -1,-24 -1,-44l0 -2c0,-2 1,-2 2,-2l17 0c1,0 3,1 3,2 2,1 5,5 8,10 4,6 8,12 12,18 10,15 19,25 27,29 2,2 5,3 8,3 3,1 7,1 13,1l18 0c3,0 4,0 4,-2 0,-1 -1,-1 -2,-1 -2,0 -4,-1 -6,-1 -1,0 -4,-1 -8,-3 -3,-1 -8,-5 -14,-11 -11,-12 -25,-30 -42,-53 10,-8 16,-16 20,-23 4,-8 6,-15 6,-22 -1,-7 -2,-13 -5,-18 -3,-5 -6,-8 -9,-10 -5,-4 -11,-6 -17,-7 -6,-1 -12,-2 -19,-2 -9,0 -18,1 -27,1 -6,0 -15,-1 -27,-1 -3,0 -5,1 -5,2 0,1 2,2 4,2 3,0 5,0 7,0 4,1 6,2 7,4 1,2 2,4 2,8 0,2 0,16 0,43l0 36zm23 -82c0,-1 1,-2 2,-2 2,-1 5,-1 10,-1 3,0 7,0 10,1 4,2 7,4 10,6 3,3 6,7 8,12 2,4 3,10 3,18 -1,8 -2,15 -4,19 -2,5 -5,9 -8,11 -2,1 -3,2 -5,3 -2,0 -5,1 -9,1 -5,0 -10,-1 -15,-2 -1,-1 -2,-2 -2,-4l0 -62zm154 46c0,-15 0,-25 0,-31 0,-5 0,-9 0,-12 0,-4 1,-6 2,-8 1,-2 3,-3 6,-4 2,0 3,0 5,0 2,0 3,-1 3,-2 0,-1 -2,-2 -4,-2 -9,0 -17,1 -24,1 -6,0 -16,-1 -28,-1 -2,0 -4,1 -4,2 0,1 1,2 4,2 3,0 5,0 7,0 3,1 6,2 7,4 1,2 1,4 2,8 0,2 0,16 0,43l0 36c0,19 0,33 -1,43 0,3 -1,5 -2,7 0,2 -2,3 -4,4 -1,0 -4,1 -7,1 -2,0 -3,0 -3,1 0,2 1,2 4,2 10,0 18,0 25,0 6,0 16,0 28,0 2,0 4,0 4,-2 0,-1 -1,-1 -3,-1 -3,0 -6,-1 -10,-1 -2,-1 -3,-2 -5,-4 -1,-2 -2,-4 -2,-7 0,-10 0,-24 0,-43l0 -19 1 0 2 3c3,5 11,14 24,30 6,6 11,13 16,19 3,2 5,5 7,7 2,2 3,4 4,5 5,4 8,7 12,9 3,2 8,3 13,4 3,0 8,0 13,0l17 0c2,0 4,0 4,0 1,-1 1,-1 1,-2 0,-1 -1,-1 -3,-1 -2,0 -6,-1 -12,-3 -5,-3 -10,-6 -14,-10 -5,-4 -9,-8 -14,-12 -5,-6 -14,-15 -26,-30 -13,-14 -22,-24 -27,-30 14,-15 29,-30 42,-44 5,-4 9,-7 12,-10 4,-2 7,-4 10,-5 4,-1 8,-2 11,-2 2,0 3,-1 3,-2 0,-1 -1,-2 -3,-2 -8,0 -16,1 -23,1 -8,0 -14,-1 -21,-1 -2,0 -3,1 -3,2 0,1 1,2 3,2 2,0 3,2 3,4 0,2 -1,4 -3,6 -2,3 -4,6 -7,9 -4,5 -11,12 -20,22 -10,10 -17,18 -21,23l-1 0 0 -9z"/>
   </g>
  </g>
 </g>
</svg>
