<?xml version="1.0" encoding="UTF-8"?>
<!DOCTYPE svg PUBLIC "-//W3C//DTD SVG 1.1//EN" "http://www.w3.org/Graphics/SVG/1.1/DTD/svg11.dtd">
<!-- Creator: CorelDRAW X7 -->
<svg xmlns="http://www.w3.org/2000/svg" xml:space="preserve" width="6.0319in" height="2.458in" version="1.1" style="shape-rendering:geometricPrecision; text-rendering:geometricPrecision; image-rendering:optimizeQuality; fill-rule:evenodd; clip-rule:evenodd"
viewBox="0 0 7859 3203"
 xmlns:xlink="http://www.w3.org/1999/xlink">
 <defs>
  <style type="text/css">
   <![CDATA[
    .fil3 {fill:#FEFEFE}
    .fil6 {fill:#201E1E}
    .fil7 {fill:#201E1E}
    .fil0 {fill:#158A12}
    .fil5 {fill:#46363C}
    .fil8 {fill:#64D866}
    .fil9 {fill:#D10309}
    .fil4 {fill:#EA0000}
    .fil2 {fill:#F9F8F9}
    .fil1 {fill:#FEFEFE;fill-rule:nonzero}
   ]]>
  </style>
 </defs>
 <g id="Layer_x0020_1">
  <metadata id="CorelCorpID_0Corel-Layer"/>
  <g id="_250711536">
   <polygon class="fil0" points="2607,0 5337,0 5337,2756 2607,2756 "/>
   <path class="fil1" d="M3599 551c1,38 -10,70 -34,96 -15,18 -36,31 -64,38 -15,4 -32,6 -52,6 -37,0 -67,-8 -91,-23 -20,-13 -36,-31 -48,-53 -12,-22 -19,-47 -21,-76l89 -5c4,31 14,53 29,67 11,11 24,16 39,16 20,-1 37,-10 49,-27 6,-8 9,-20 9,-35 0,-23 -11,-45 -35,-67 -18,-15 -46,-37 -83,-68 -31,-26 -53,-49 -66,-70 -14,-23 -21,-48 -21,-75 0,-49 19,-86 57,-111 24,-15 53,-23 87,-23 34,0 62,7 86,20 19,10 34,24 45,42 12,17 18,38 21,62l-90 14c-3,-22 -10,-39 -22,-52 -9,-8 -21,-13 -37,-13 -18,0 -31,7 -40,20 -7,11 -11,24 -11,39 0,25 13,50 37,75 9,10 23,21 42,35 22,15 36,26 43,32 23,21 41,40 54,60 6,9 11,17 14,25 9,19 14,36 14,51zm226 -403c45,0 82,12 109,37 25,24 38,54 38,91l0 78c0,35 -15,66 -43,91 -29,25 -64,38 -104,38l-55 0 0 202 -93 0 0 -537 148 0zm56 129c0,-14 -5,-25 -15,-34 -10,-8 -23,-12 -39,-12l-57 0 0 171 57 0c15,0 28,-4 38,-13 11,-9 16,-20 16,-33l0 -79zm259 408l-94 0 0 -537 94 0 0 537zm189 -538l124 361 0 -361 94 0 0 538 -101 0 -129 -344 0 344 -93 0 0 -538 105 0z"/>
   <path class="fil1" d="M3360 1117l0 284 -121 0 0 -669 121 0 0 284 146 0 0 -284 120 0 0 669 -120 0 0 -284 -146 0zm374 284l0 -670 344 0 0 101 -223 0 0 183 162 0 0 102 -162 0 0 182 223 0 0 102 -344 0zm872 0l-129 0 -93 -213 -94 213 -129 0 157 -337 -157 -332 133 0 90 206 88 -206 134 0 -157 332 157 337z"/>
   <path class="fil1" d="M3969 2344c0,69 -28,129 -85,179 -57,50 -125,75 -205,75l-290 0 0 -1062 290 0c81,0 149,25 206,75 56,49 84,109 84,178l0 555zm-396 95l111 0c30,0 55,-9 75,-28 20,-18 30,-39 30,-64l0 -555c0,-26 -10,-48 -31,-66 -20,-18 -45,-27 -74,-27l-111 0 0 740zm905 -82c0,71 -28,130 -85,179 -57,49 -126,73 -206,73 -47,0 -85,-4 -115,-12l27 -149c21,3 39,5 53,5 10,0 23,0 40,-1 29,-2 55,-11 75,-28 21,-17 31,-38 31,-63l0 -823 180 0 0 819z"/>
   <g>
    <g>
     <path class="fil2" d="M178 1756l-159 252 39 22 0 70c0,13 28,72 36,112l118 0c112,0 206,-104 251,-182l-25 -239 -177 -66 -83 31z"/>
     <path class="fil3" d="M308 1526l-21 14 -15 126 47 0c69,-168 360,-428 535,-476 -20,-15 -231,-58 -274,-70 -106,-28 -182,-80 -249,-98 15,64 36,35 36,84l0 56c0,20 -56,356 -59,364z"/>
     <path class="fil2" d="M354 2751l-130 20 0 56c0,114 -41,161 -48,251l453 -153 -9 -18 -159 -194 -107 38z"/>
     <path class="fil4" d="M248 2254l-47 0 0 210c0,32 8,42 35,42l12 0c45,0 59,-28 71,-28 46,0 5,-5 35,10l175 -81 28 -181 -12 -42 -47 0c-46,0 -5,4 -36,-14 -18,54 -142,84 -214,84z"/>
     <path class="fil5" d="M284 1904l-72 0c-47,0 -59,28 -107,42l10 105 26 -63 24 0c14,64 80,77 143,85l-60 55 48 0c189,-150 47,-150 23,-252l-35 0 0 28z"/>
     <path class="fil2" d="M177 2002c33,26 50,42 107,42l12 0c27,0 35,-10 35,-42l0 -14c0,-45 -46,-56 -83,-56 -45,0 -56,35 -71,70z"/>
     <path class="fil6" d="M1796 1085l59 -14 49 -347c24,31 129,111 129,153 0,25 -52,259 -59,278l-107 -70 -23 56c212,58 67,140 59,264l35 14 56 -196 192 113 -1 -42 14 -7 30 72 52 4 12 28 0 -28 141 0 0 -55c0,-45 -10,-11 -23,-70l129 18 53 104 66 3 0 28 130 0 37 -105 -13 -6 212 0c-21,108 -25,200 -9,331 15,124 63,202 68,281 -148,0 -326,56 -520,56 -201,0 -361,28 -531,28 -216,-1 -349,26 -532,42 -168,13 -359,55 -508,55l-34 30 -344 40 0 -42 -166 30c11,-13 83,-89 83,-100 0,-57 -31,-84 -24,-139l12 -111 6 -12 -95 -69 -11 7 53 -93 4 -84c150,-95 324,-320 551,-320l0 -13 -118 9 -14 -36 -33 13c-175,48 -464,306 -532,473l-47 0 15 -125 20 -14 -59 0c-6,81 -24,29 -24,83l0 84c-138,38 -152,163 -236,278l0 55c47,38 71,145 71,237l83 0 27 305 55 1c-6,31 -11,32 -11,70l0 55c-100,10 -71,110 -71,237l-59 153 73 107 4 -26 195 -92c97,-3 375,-142 488,-179 174,-55 358,-78 528,-130 117,-36 416,-104 543,-111 75,-5 486,-100 532,-126l307 -69 0 28 390 -47c-12,-23 -23,-36 -23,-79l0 -41c0,-53 25,-117 -2,-131 -31,-17 -78,45 -93,-9 81,-2 48,-14 66,-89 15,-61 40,-50 40,-119l0 -14c0,-41 -70,-243 -70,-390l0 -111c0,-32 32,-147 47,-167l-37 -82c-29,16 -71,26 -117,26l-153 0c-6,-82 -24,-29 -24,-83l0 -84 -24 0 0 -41c0,-86 -64,-387 -82,-488 -17,-95 -36,-421 -36,-528l-35 0c0,216 31,738 94,849l65 416 18 1 0 70 -81 34 -2 -34 -94 0c-5,-64 -61,-189 -83,-251 -19,-52 -61,-195 -118,-195 -18,0 -187,361 -189,390l-211 -102 52 -230 21 -55 42 14c-2,-49 -118,-138 -151,-172 -41,-43 -120,-136 -155,-165l64 -78c13,-74 288,-294 302,-492l-47 0c-10,142 -105,218 -168,303 -49,68 -131,223 -222,226l55 487c-5,-4 -180,-199 -190,-217 -28,-50 -54,-75 -88,-120 -35,-48 -52,-79 -84,-123 -100,-138 -232,-351 -272,-556l-24 0c3,162 174,447 250,541 6,8 64,104 74,121 34,59 53,58 87,107 39,55 153,170 168,219l-147 -109 -6 -30c-65,-7 -267,-250 -314,-313 -58,-77 -72,-106 -120,-192 -28,-49 -66,-184 -110,-205l0 -83 -35 -56 -24 0c4,215 228,519 328,643 73,91 396,432 499,442z"/>
     <path class="fil3" d="M603 2226l0 42c104,0 217,-73 224,25l-224 31 0 41 -24 0 0 42c0,38 -6,38 -12,70 -43,0 -189,42 -189,83l0 84 113 8 112 117c29,-3 212,-78 212,-14 0,95 -132,4 -154,91l887 -175 0 -27 118 0c27,0 26,-11 50,-15l1037 -236 -94 0 0 -41 130 -15 0 -54 130 -43 0 -113 -153 -27 -24 -55c-37,4 -42,14 -83,14l-71 0 0 -42 154 0 0 -41 -225 0c-301,0 -701,71 -992,84 -164,7 -324,35 -468,75 -46,12 -185,36 -230,35 -114,0 -173,49 -224,56z"/>
     <path class="fil7" d="M260 1517l59 0c3,-8 59,-342 59,-362l0 -56c0,-48 -21,-19 -35,-83 66,18 141,70 247,98 42,11 252,54 273,69l33 -13 14 36 118 -9 0 13c-227,0 -401,225 -551,320l-4 84 82 -84 3 67 45 59c11,0 457,104 472,111 101,43 368,50 501,78 214,46 879,5 1118,5 111,-86 169,-13 237,-180 -61,-135 -446,-279 -638,-279l-12 -28 -52 -4 -30 -72 -14 7 1 42 -174 313 -63 30 -44 -29 -14 -36 33 -144 14 5 0 -56 -35 -14c-11,56 -1,125 -48,125 -6,0 -59,-57 -59,-83l0 -14c0,-137 27,-186 48,-292l23 -56 -12 -14 -59 14 0 42 0 42 -212 0 -107 15c1,-59 38,-127 -23,-127l-485 0 42 78 -159 -19c-62,-27 -198,-40 -283,-61 -61,-15 -149,-102 -226,-123l-38 90 -10 63c27,9 36,3 36,42l0 14 -14 153 -22 0 0 42c0,55 -24,126 -35,181z"/>
     <path class="fil3" d="M2612 0l-426 0c-14,198 -289,418 -302,492l-64 78c35,29 114,122 155,165 33,34 149,123 151,172l-42 -14 -21 55 -52 230 211 102c2,-29 171,-390 189,-390 57,0 99,143 118,195 22,62 78,187 83,251l94 0 2 34 81 -34 0 -70 -18 -1 -65 -416c-63,-111 -94,-633 -94,-849z"/>
     <path class="fil3" d="M2293 1391c192,0 577,144 638,279 -68,167 -126,94 -237,180 -239,0 -904,41 -1118,-5 -133,-28 -400,-35 -501,-78 -15,-7 -461,-111 -472,-111l-45 -59 -3 -67 -82 84 -53 93 11 -7 95 69 -6 12 -12 111c-7,55 24,82 24,139 0,11 -72,87 -83,100l166 -30 0 42 344 -40 34 -30c149,0 340,-42 508,-55 183,-16 316,-43 532,-42 170,0 330,-28 531,-28 194,0 372,-56 520,-56 -5,-79 -53,-157 -68,-281 -16,-131 -12,-223 9,-331l-212 0 13 6 -37 105 -130 0 0 -28 -66 -3 -53 -104 -129 -18c13,59 23,25 23,70l0 55 -141 0 0 28z"/>
     <path class="fil2" d="M191 1745l-159 251 39 21 0 70c0,13 28,72 35,111l119 0c110,0 204,-103 248,-181l-24 -236 -176 -66 -82 30z"/>
     <path class="fil3" d="M319 1517l-20 14 -15 125 47 0c68,-167 357,-425 532,-473 -21,-15 -231,-58 -273,-69 -106,-28 -181,-80 -247,-98 14,64 35,35 35,83l0 56c0,20 -56,354 -59,362z"/>
     <path class="fil2" d="M1146 0l-153 0 35 56 0 83c44,21 82,156 110,205 48,86 62,115 120,192 47,63 249,306 314,313l6 30 147 109c-15,-49 -129,-164 -168,-219 -34,-49 -53,-48 -87,-107 -10,-17 -68,-113 -74,-121 -76,-94 -247,-379 -250,-541z"/>
     <path class="fil2" d="M1324 1503l11 83c192,53 268,84 512,83l8 -111c-72,-2 -101,-61 -106,-139l-142 0c-117,0 -189,58 -283,84z"/>
     <path class="fil2" d="M365 2735l-129 20 0 55c0,114 -41,160 -47,250l449 -152 -8 -18 -158 -194 -107 39z"/>
     <path class="fil4" d="M260 2240l-47 0 0 209c0,32 8,41 35,41l12 0c45,0 59,-27 71,-27 45,0 4,-5 34,10l174 -81 28 -179 -12 -43 -47 0c-45,0 -4,5 -35,-13 -19,53 -142,83 -213,83z"/>
     <polygon class="fil2" points="1938,1419 1938,1475 1924,1470 1891,1614 1905,1650 1949,1679 2012,1649 2186,1336 1994,1223 "/>
     <path class="fil2" d="M1088 1154l-36 126 83 4 119 -20 34 30c40,-25 126,-117 130,-180l-355 -14 25 54z"/>
     <path class="fil2" d="M1855 1071l12 14 107 70c7,-19 59,-253 59,-278 0,-42 -105,-122 -129,-153l-49 347z"/>
     <path class="fil2" d="M1903 1405c8,-124 153,-206 -59,-264 -21,106 -48,155 -48,292l0 14c0,26 53,83 59,83 47,0 37,-69 48,-125z"/>
     <path class="fil5" d="M295 1892l-70 0c-48,0 -59,29 -107,42l10 105 26 -63 23 0c15,64 80,77 143,85l-60 54 47 0c189,-149 47,-149 24,-251l-36 0 0 28z"/>
     <polygon class="fil8" points="2291,1195 2340,1197 2344,1149 2399,1193 2534,1208 2430,934 2422,924 "/>
     <path class="fil2" d="M2093 1608l-37 77 211 -44 14 -41c-29,-63 -77,-80 -139,-95l-49 103z"/>
     <path class="fil9" d="M2848 2322l0 71 165 0c28,0 36,-10 36,-42l0 -81 -201 52z"/>
     <path class="fil2" d="M189 1990c33,26 50,41 106,41l12 0c27,0 36,-9 36,-41l0 -14c0,-45 -47,-56 -83,-56 -44,0 -55,35 -71,70z"/>
    </g>
    <g>
     <path class="fil2" d="M7681 1756l159 252 -38 22 0 70c0,13 -28,72 -36,112l-119 0c-111,0 -205,-104 -250,-182l24 -239 177 -66 83 31z"/>
     <path class="fil3" d="M7552 1526l21 14 15 126 -48 0c-68,-168 -359,-428 -535,-476 20,-15 232,-58 274,-70 107,-28 182,-80 249,-98 -14,64 -36,35 -36,84l0 56c0,20 57,356 60,364z"/>
     <path class="fil2" d="M7506 2751l129 20 0 56c0,114 41,161 48,251l-452 -153 8 -18 159 -194 108 38z"/>
     <path class="fil4" d="M7611 2254l48 0 0 210c0,32 -8,42 -36,42l-12 0c-45,0 -59,-28 -71,-28 -45,0 -4,-5 -35,10l-174 -81 -28 -181 11 -42 48 0c45,0 4,4 35,-14 19,54 143,84 214,84z"/>
     <path class="fil5" d="M7576 1904l71 0c48,0 59,28 107,42l-10 105 -26 -63 -23 0c-15,64 -80,77 -144,85l60 55 -47 0c-190,-150 -47,-150 -24,-252l36 0 0 28z"/>
     <path class="fil2" d="M7683 2002c-33,26 -50,42 -107,42l-12 0c-28,0 -36,-10 -36,-42l0 -14c0,-45 47,-56 83,-56 45,0 56,35 72,70z"/>
     <path class="fil6" d="M6063 1085l-59 -14 -49 -347c-24,31 -128,111 -128,153 0,25 51,259 59,278l106 -70 24 56c-213,58 -68,140 -59,264l-36 14 -55 -196 -193 113 1 -42 -14 -7 -30 72 -51 4 -12 28 0 -28 -142 0 0 -55c0,-45 10,-11 24,-70l-130 18 -52 104 -66 3 0 28 -130 0 -37 -105 13 -6 -213 0c22,108 26,200 10,331 -16,124 -63,202 -69,281 149,0 327,56 520,56 202,0 361,28 532,28 215,-1 348,26 532,42 168,13 358,55 508,55l34 30 344 40 0 -42 165 30c-10,-13 -82,-89 -82,-100 0,-57 31,-84 23,-139l-12 -111 -6 -12 95 -69 12 7 -53 -93 -4 -84c-150,-95 -324,-320 -552,-320l0 -13 119 9 14 -36 33 13c174,48 464,306 532,473l47 0 -15 -125 -21 -14 59 0c6,81 24,29 24,83l0 84c139,38 152,163 236,278l0 55c-47,38 -70,145 -70,237l-83 0 -28 305 -55 1c6,31 12,32 12,70l0 55c99,10 71,110 71,237l58 153 -72 107 -4 -26 -196 -92c-97,-3 -375,-142 -488,-179 -173,-55 -357,-78 -527,-130 -118,-36 -416,-104 -544,-111 -74,-5 -486,-100 -532,-126l-307 -69 0 28 -389 -47c12,-23 23,-36 23,-79l0 -41c0,-53 -25,-117 1,-131 32,-17 78,45 93,-9 -80,-2 -48,-14 -66,-89 -14,-61 -40,-50 -40,-119l0 -14c0,-41 71,-243 71,-390l0 -111c0,-32 -33,-147 -47,-167l37 -82c29,16 70,26 116,26l154 0c6,-82 24,-29 24,-83l0 -84 23 0 0 -41c0,-86 64,-387 82,-488 17,-95 36,-421 36,-528l36 0c0,216 -32,738 -95,849l-65 416 -17 1 0 70 80 34 2 -34 95 0c4,-64 60,-189 82,-251 19,-52 61,-195 119,-195 17,0 187,361 189,390l211 -102 -53 -230 -20 -55 -43 14c3,-49 119,-138 151,-172 41,-43 120,-136 156,-165l-64 -78c-13,-74 -289,-294 -303,-492l48 0c10,142 105,218 167,303 50,68 132,223 223,226l-56 487c6,-4 180,-199 190,-217 28,-50 55,-75 88,-120 36,-48 53,-79 85,-123 99,-138 231,-351 272,-556l23 0c-3,162 -174,447 -249,541 -7,8 -64,104 -75,121 -33,59 -52,58 -86,107 -39,55 -154,170 -169,219l147 -109 7 -30c64,-7 266,-250 314,-313 58,-77 71,-106 120,-192 27,-49 66,-184 109,-205l0 -83 36 -56 23 0c-4,215 -227,519 -328,643 -73,91 -395,432 -499,442z"/>
     <path class="fil3" d="M7257 2226l0 42c-105,0 -218,-73 -224,25l224 31 0 41 23 0 0 42c0,38 6,38 12,70 44,0 189,42 189,83l0 84 -112 8 -112 117c-29,-3 -213,-78 -213,-14 0,95 133,4 155,91l-888 -175 0 -27 -118 0c-26,0 -26,-11 -49,-15l-1038 -236 95 0 0 -41 -130 -15 -1 -54 -129 -43 -1 -113 154 -27 24 -55c37,4 42,14 83,14l70 0 0 -42 -153 0 0 -41 224 0c302,0 702,71 993,84 163,7 323,35 468,75 46,12 185,36 229,35 115,0 173,49 225,56z"/>
     <path class="fil7" d="M7599 1517l-59 0c-3,-8 -59,-342 -59,-362l0 -56c0,-48 21,-19 36,-83 -67,18 -142,70 -248,98 -42,11 -252,54 -272,69l-33 -13 -14 36 -119 -9 0 13c228,0 402,225 552,320l4 84 -83 -84 -2 67 -45 59c-12,0 -457,104 -473,111 -101,43 -368,50 -501,78 -214,46 -879,5 -1118,5 -110,-86 -168,-13 -236,-180 60,-135 445,-279 638,-279l12 -28 51 -4 30 -72 14 7 -1 42 174 313 64 30 44 -29 13 -36 -33 -144 -14 5 0 -56 36 -14c11,56 0,125 47,125 6,0 59,-57 59,-83l0 -14c0,-137 -26,-186 -47,-292l-24 -56 12 -14 59 14 0 42 0 42 213 0 106 15c-1,-59 -37,-127 24,-127l484 0 -41 78 158 -19c62,-27 199,-40 283,-61 62,-15 149,-102 227,-123l37 90 10 63c-26,9 -35,3 -35,42l0 14 13 153 22 0 0 42c0,55 25,126 35,181z"/>
     <path class="fil3" d="M5248 0l425 0c14,198 290,418 303,492l64 78c-36,29 -115,122 -156,165 -32,34 -148,123 -151,172l43 -14 20 55 53 230 -211 102c-2,-29 -172,-390 -189,-390 -58,0 -100,143 -119,195 -22,62 -78,187 -82,251l-95 0 -2 34 -80 -34 0 -70 17 -1 65 -416c63,-111 95,-633 95,-849z"/>
     <path class="fil3" d="M5567 1391c-193,0 -578,144 -638,279 68,167 126,94 236,180 239,0 904,41 1118,-5 133,-28 400,-35 501,-78 16,-7 461,-111 473,-111l45 -59 2 -67 83 84 53 93 -12 -7 -95 69 6 12 12 111c8,55 -23,82 -23,139 0,11 72,87 82,100l-165 -30 0 42 -344 -40 -34 -30c-150,0 -340,-42 -508,-55 -184,-16 -317,-43 -532,-42 -171,0 -330,-28 -532,-28 -193,0 -371,-56 -520,-56 6,-79 53,-157 69,-281 16,-131 12,-223 -10,-331l213 0 -13 6 37 105 130 0 0 -28 66 -3 52 -104 130 -18c-14,59 -24,25 -24,70l0 55 142 0 0 28z"/>
     <path class="fil2" d="M7669 1745l158 251 -38 21 0 70c0,13 -28,72 -36,111l-118 0c-111,0 -204,-103 -249,-181l24 -236 177 -66 82 30z"/>
     <path class="fil3" d="M7540 1517l21 14 15 125 -47 0c-68,-167 -358,-425 -532,-473 20,-15 230,-58 272,-69 106,-28 181,-80 248,-98 -15,64 -36,35 -36,83l0 56c0,20 56,354 59,362z"/>
     <path class="fil2" d="M6713 0l154 0 -36 56 0 83c-43,21 -82,156 -109,205 -49,86 -62,115 -120,192 -48,63 -250,306 -314,313l-7 30 -147 109c15,-49 130,-164 169,-219 34,-49 53,-48 86,-107 11,-17 68,-113 75,-121 75,-94 246,-379 249,-541z"/>
     <path class="fil2" d="M6536 1503l-12 83c-191,53 -267,84 -512,83l-8 -111c73,-2 101,-61 107,-139l141 0c117,0 189,58 284,84z"/>
     <path class="fil2" d="M7495 2735l128 20 0 55c0,114 41,160 48,250l-450 -152 8 -18 159 -194 107 39z"/>
     <path class="fil4" d="M7599 2240l48 0 0 209c0,32 -8,41 -36,41l-12 0c-45,0 -58,-27 -70,-27 -46,0 -5,-5 -35,10l-173 -81 -28 -179 11 -43 47 0c46,0 5,5 36,-13 18,53 142,83 212,83z"/>
     <polygon class="fil2" points="5921,1419 5921,1475 5935,1470 5968,1614 5955,1650 5911,1679 5847,1649 5673,1336 5866,1223 "/>
     <path class="fil2" d="M6772 1154l36 126 -83 4 -120 -20 -34 30c-39,-25 -125,-117 -130,-180l356 -14 -25 54z"/>
     <path class="fil2" d="M6004 1071l-12 14 -106 70c-8,-19 -59,-253 -59,-278 0,-42 104,-122 128,-153l49 347z"/>
     <path class="fil2" d="M5957 1405c-9,-124 -154,-206 59,-264 21,106 47,155 47,292l0 14c0,26 -53,83 -59,83 -47,0 -36,-69 -47,-125z"/>
     <path class="fil5" d="M7564 1892l71 0c47,0 59,29 106,42l-9 105 -26 -63 -24 0c-14,64 -79,77 -142,85l59 54 -47 0c-188,-149 -47,-149 -23,-251l35 0 0 28z"/>
     <polygon class="fil8" points="5569,1195 5520,1197 5516,1149 5460,1193 5326,1208 5429,934 5437,924 "/>
     <path class="fil2" d="M5767 1608l36 77 -210 -44 -14 -41c28,-63 77,-80 138,-95l50 103z"/>
     <path class="fil2" d="M7670 1990c-33,26 -49,41 -106,41l-12 0c-27,0 -35,-9 -35,-41l0 -14c0,-45 46,-56 82,-56 45,0 56,35 71,70z"/>
    </g>
   </g>
   <polygon class="fil0" points="2373,3129 5507,3110 5324,2657 2631,2657 "/>
   <path class="fil1" d="M2809 3085c-18,0 -33,-6 -45,-20 -12,-14 -18,-30 -19,-50l-2 -162c0,-19 6,-36 18,-50 12,-14 27,-21 44,-22 17,0 32,7 44,20 13,14 19,31 19,50l1 34 -41 1 -1 -35c0,-7 -2,-13 -7,-18 -4,-5 -9,-7 -16,-7 -6,0 -11,2 -16,7 -4,6 -6,12 -6,19l2 162c0,7 2,13 7,18 4,5 10,7 16,7 6,0 11,-2 16,-7 4,-5 6,-11 6,-19l0 -40 41 -1 0 41c0,20 -6,37 -18,51 -12,14 -26,21 -43,21zm181 -132l1 126 -39 0 -3 -297 39 0 1 126 48 -1 -2 -126 40 -1 3 297 -39 1 -2 -126 -47 1zm220 54l-9 68 -41 1 41 -297 54 -1 47 296 -41 0 -10 -68 -41 1zm18 -161l-13 117 29 0 -16 -117zm195 226l-39 1 -4 -298 57 0 39 213 33 -215 54 0 4 297 -40 0 -2 -186 -32 187 -32 0 -40 -185 2 186zm286 -301c19,-1 35,6 46,20 11,13 17,29 17,50l0 43c1,19 -5,36 -17,50 -12,14 -27,22 -44,22l-22 0 1 112 -39 1 -4 -297 62 -1zm25 71c0,-8 -3,-14 -7,-19 -4,-4 -9,-7 -16,-7l-24 1 1 95 24 -1c6,0 11,-2 16,-7 4,-5 6,-12 6,-19l0 -43zm160 223l-39 0 -4 -296 39 -1 4 297zm142 -303c17,0 32,7 45,20 12,14 18,31 18,50l2 162c1,20 -5,37 -17,51 -12,14 -27,21 -44,21 -18,1 -32,-6 -45,-20 -12,-14 -18,-30 -18,-50l-2 -162c-1,-20 5,-37 17,-50 12,-15 27,-22 44,-22zm22 70c0,-7 -2,-13 -6,-18 -5,-5 -10,-7 -16,-7 -7,0 -12,2 -16,8 -5,5 -7,11 -7,18l2 162c0,7 2,13 7,18 4,5 10,7 16,7 6,0 12,-2 16,-7 4,-6 6,-12 6,-19l-2 -162zm168 -69l55 198 -2 -199 39 -1 3 297 -42 1 -56 -189 2 190 -39 0 -4 -297 44 0zm306 218c1,21 -4,39 -13,54 -6,10 -15,17 -27,21 -6,2 -14,4 -22,4 -15,0 -28,-4 -38,-13 -9,-7 -16,-16 -21,-29 -5,-12 -8,-26 -9,-42l37 -3c2,17 7,30 13,37 5,6 10,9 16,8 9,0 16,-5 21,-14 2,-5 4,-12 3,-20 0,-13 -5,-25 -15,-37 -8,-8 -19,-20 -35,-37 -13,-14 -23,-27 -28,-38 -6,-13 -9,-27 -10,-42 0,-27 8,-47 24,-61 9,-9 22,-13 36,-13 14,-1 26,3 36,10 8,5 15,13 20,23 4,9 7,21 9,34l-38 8c-1,-12 -5,-21 -10,-28 -3,-5 -9,-7 -15,-7 -8,0 -13,4 -17,11 -3,6 -4,13 -4,22 0,13 5,27 16,41 4,5 10,12 18,19 9,8 15,14 18,18 10,11 18,21 23,32 3,5 5,10 6,14 4,10 6,20 6,28zm120 -54l2 126 -39 1 -4 -297 39 -1 2 126 47 0 -1 -126 39 -1 4 297 -40 0 -1 -125 -48 0zm212 123l-39 1 -4 -297 40 -1 3 297zm143 -299c19,0 34,6 46,20 10,13 16,29 16,50l1 43c0,20 -6,36 -18,51 -12,14 -26,21 -43,21l-23 0 1 112 -39 1 -3 -297 62 -1zm24 71c0,-8 -2,-14 -6,-19 -5,-4 -10,-6 -17,-6l-24 0 1 95 24 0c7,0 12,-3 16,-8 5,-5 7,-11 7,-19l-1 -43z"/>
   <polygon class="fil0" points="2230,3203 5743,3203 5743,3078 2230,3078 "/>
  </g>
 </g>
</svg>
